<svg xmlns="http://www.w3.org/2000/svg" viewBox="0 0 536.041 162.4412">
  <defs>
    <style>
      .a {
        fill: #2a4d4d;
      }

      .b {
        fill: #fff;
      }

      .c {
        fill: #14cc76;
      }
    </style>
  </defs>
  <title>banner-2</title>
  <g>
    <path class="a" d="M105.6229,131.1748V103.6979A12.0106,12.0106,0,0,0,93.6123,91.6873h0a12.0106,12.0106,0,0,0-12.0106,12.0106v27.4769H70.8471V70.2042a18.016,18.016,0,0,0-36.032,0V117.528H24.0213V94.9023A12.0106,12.0106,0,0,0,12.0107,82.8917h0A12.0106,12.0106,0,0,0,0,94.9023V117.528a24.0213,24.0213,0,0,0,24.0213,24.0213H34.8151v20.8919h36.032v-7.2451H81.6409a24.0212,24.0212,0,0,0,24.0212-24.0212h-.0392Z"/>
    <path class="a" d="M97.3,45.6917,93.3639,30.6276a12.6015,12.6015,0,0,0-.3976-1.2286c.3093-7.6426-.0667-19.6122-4.5981-26.81C82.7313-6.3662,70.1543,10.23,65.333,17.2525c-.7406.0526-1.4862.1183-2.24.2079L31.6847,21.1971c-.7539.09-1.4945.2009-2.2272.3235C23.1289,15.83,7.0062,2.6386,3.6261,12.67.91,20.7307,3.3528,32.4542,5.4466,39.8111a12.5822,12.5822,0,0,0-.0983,1.2876L5.0561,56.6659C9.8472,96.9377,102.0914,85.9635,97.3,45.6917Z"/>
    <g>
      <path class="b" d="M31.1933,36.5558A10.0412,10.0412,0,0,1,32.367,56.5679a10.1506,10.1506,0,0,1-1.1988.0713,10.0412,10.0412,0,0,1-1.1735-20.0121,10.1473,10.1473,0,0,1,1.1986-.0713m0-3.2114h0a13.41,13.41,0,0,0-1.5783.0938,13.2526,13.2526,0,0,0,1.5529,26.4124,13.4186,13.4186,0,0,0,1.5782-.0937,13.2527,13.2527,0,0,0-1.5526-26.4125Z"/>
      <circle class="b" cx="33.7664" cy="44.3052" r="4.0927"/>
    </g>
    <g>
      <path class="b" d="M69.5551,31.992a10.0412,10.0412,0,0,1,1.1736,20.0121,10.1473,10.1473,0,0,1-1.1986.0713,10.0412,10.0412,0,0,1-1.1737-20.0121,10.1489,10.1489,0,0,1,1.1987-.0713m.0005-3.2114h0a13.4105,13.4105,0,0,0-1.5784.0937A13.2527,13.2527,0,0,0,69.53,55.2868a13.4154,13.4154,0,0,0,1.578-.0938,13.2526,13.2526,0,0,0-1.5525-26.4124Z"/>
      <circle class="b" cx="72.1282" cy="39.7413" r="4.0927"/>
    </g>
    <path class="c" d="M193.7857,139.1723l-2.5347-1.9463-2.078,2.4278c-5.6155,6.5605-12.4422,9.75-20.87,9.75-7.56,0-13.6548-2.3407-18.6335-7.1559a23.4916,23.4916,0,0,1-7.3541-17.7669,23.9418,23.9418,0,0,1,7.5461-18.0051,24.8031,24.8031,0,0,1,18.0711-7.38c8.6984,0,15.6257,3.3461,21.1776,10.23l2.0657,2.5612,2.61-2.004,5.1864-3.9824,2.5793-1.98-1.8872-2.6483a35.1735,35.1735,0,0,0-13.7067-11.46,42.9241,42.9241,0,0,0-18.5808-3.9386,40.0478,40.0478,0,0,0-19.4458,4.9518A36.6072,36.6072,0,0,0,133.673,104.63a37.4926,37.4926,0,0,0-5.1364,19.156c0,11.0724,3.7322,20.3843,11.0929,27.6768,7.35,7.2844,16.8732,10.9781,28.303,10.9781a43.4022,43.4022,0,0,0,17.9624-3.6779,35.0689,35.0689,0,0,0,13.7115-10.9011l2.021-2.6687-2.6552-2.0388Z"/>
    <path class="c" d="M280.8432,156.0253,249.8183,86.8446l-.893-1.9911h-6.02l-.8975,1.9773-31.3954,69.1808-2.1615,4.7628h14.8043l.9-1.969,9.4724-20.7208h24.3876l9.5618,20.7311.9032,1.9587h14.493Zm-41.0859-31.4415,6.14-13.4784,6.09,13.4784Z"/>
    <polygon class="c" points="290.733 87.539 287.363 87.539 287.363 90.909 287.363 97.392 287.363 100.762 290.733 100.762 302.273 100.762 302.273 157.404 302.273 160.774 305.643 160.774 312.404 160.774 315.774 160.774 315.774 157.404 315.774 100.762 327.221 100.762 330.592 100.762 330.592 97.392 330.592 90.909 330.592 87.539 327.221 87.539 290.733 87.539"/>
    <path class="c" d="M404.8442,139.1723,402.31,137.226l-2.0781,2.4278c-5.6154,6.5605-12.4422,9.75-20.87,9.75-7.5594,0-13.6544-2.3407-18.6336-7.156a23.4915,23.4915,0,0,1-7.354-17.7668,23.9422,23.9422,0,0,1,7.5465-18.0051,24.8028,24.8028,0,0,1,18.0706-7.38c8.6984,0,15.6257,3.3461,21.1781,10.23l2.0658,2.561,2.61-2.0039,5.1865-3.9824,2.5793-1.98-1.8872-2.6483a35.1748,35.1748,0,0,0-13.7071-11.46,42.92,42.92,0,0,0-18.58-3.9386,40.0459,40.0459,0,0,0-19.4459,4.9518A36.6083,36.6083,0,0,0,344.7316,104.63a37.4924,37.4924,0,0,0-5.1368,19.156c0,11.072,3.7321,20.3838,11.0928,27.6767,7.3511,7.2845,16.8737,10.9782,28.303,10.9782a43.4,43.4,0,0,0,17.9626-3.6779,35.0679,35.0679,0,0,0,13.7117-10.9011l2.021-2.6688-2.6552-2.0387Z"/>
    <path class="c" d="M468.2671,87.5392h-3.37V131.01c0,5.8479-.372,8.5444-.6841,9.7767a11.744,11.744,0,0,1-2.2079,4.441,10.6671,10.6671,0,0,1-3.82,3.0773,12.4065,12.4065,0,0,1-5.4309,1.0985,12.7782,12.7782,0,0,1-5.8538-1.3568,9.854,9.854,0,0,1-4.0086-3.454,10.165,10.165,0,0,1-1.6953-4.573c-.2037-1.9664-.3068-4.9966-.3068-9.01V87.5392H427.4819V131.01c0,7.0586.4227,11.9412,1.2926,14.9267a21.4962,21.4962,0,0,0,4.87,8.5562,23.5347,23.5347,0,0,0,8.6273,5.8947,29.8259,29.8259,0,0,0,11.27,2.0536,23.8735,23.8735,0,0,0,14.0232-4.2248,22.5953,22.5953,0,0,0,8.3908-10.5448c1.5185-4.0051,2.2565-9.4549,2.2565-16.6616V87.5392h-9.9455Z"/>
    <path class="c" d="M519.3095,117.0025c-6.35-4.6967-8.7753-6.9986-9.6916-8.1027a6.4278,6.4278,0,0,1-1.4923-4.284,4.7131,4.7131,0,0,1,1.4922-3.6635,5.8968,5.8968,0,0,1,4.26-1.4867,6.9571,6.9571,0,0,1,4.65,1.5345,29.9315,29.9315,0,0,1,4.8163,5.2448l2.0495,2.7806,2.7291-2.1176,5.3713-4.1676,2.5474-1.9765-1.8621-2.6323a34.8923,34.8923,0,0,0-8.7455-8.9559,20.1191,20.1191,0,0,0-11.4168-3.3034,19.138,19.138,0,0,0-13.8883,5.4541,18.1023,18.1023,0,0,0-5.5961,13.3822,20.188,20.188,0,0,0,1.3829,7.2773,20.9581,20.9581,0,0,0,4.2888,6.733,83.1736,83.1736,0,0,0,9.9821,8.3634,53.287,53.287,0,0,1,9.5161,8.6032,9.3141,9.3141,0,0,1,2.3358,5.6046,7.0059,7.0059,0,0,1-2.4923,5.5484,9.2356,9.2356,0,0,1-6.4548,2.38c-3.8935,0-7.5395-3.0833-10.8366-9.1644l-1.6656-3.0724-3.01,1.7763-5.6491,3.334-2.75,1.6228,1.472,2.8333c5.4794,10.5461,13.34,15.8934,23.3647,15.8934a21.6543,21.6543,0,0,0,15.3339-6.2527,20.0845,20.0845,0,0,0,6.6514-14.9912,20.9735,20.9735,0,0,0-4.3084-12.5472C529.0283,125.0075,524.9776,121.1977,519.3095,117.0025Z"/>
  </g>
</svg>
