<svg xmlns="http://www.w3.org/2000/svg" xmlns:xlink="http://www.w3.org/1999/xlink" viewBox="0 0 445.891 390.367">
  <defs>
    <style>
      .a {
        fill: #2a4d4d;
      }

      .b {
        fill: url(#a);
      }

      .c {
        fill: #fff;
      }

      .d {
        opacity: 0.3;
      }

      .e {
        fill: #4d4d4d;
      }
    </style>
    <linearGradient id="a" x1="222.9455" y1="172.0365" x2="222.9455" y2="295.7473" gradientUnits="userSpaceOnUse">
      <stop offset="0" stop-color="#ffd061"/>
      <stop offset="1" stop-color="#cca43d"/>
    </linearGradient>
  </defs>
  <title>nothing-here</title>
  <g>
    <path class="a" d="M199.9881,125.13V96.3608a12.5754,12.5754,0,0,0-12.5755-12.5755h0A12.5755,12.5755,0,0,0,174.837,96.3608V125.13h-11.26V65.0278a18.8634,18.8634,0,0,0-37.7267,0V110.056H114.5484v-23.69a12.5755,12.5755,0,0,0-12.5755-12.5755h0A12.5755,12.5755,0,0,0,89.3973,86.3661v23.69a25.1511,25.1511,0,0,0,25.1511,25.1511H125.85v88.7h37.7267V150.2812h11.3015A25.1511,25.1511,0,0,0,200.0292,125.13h-.0411Z"/>
    <path class="a" d="M269.3586,177.1371l2.07-17.769a4.7285,4.7285,0,0,1,5.2441-4.1495h0a4.7284,4.7284,0,0,1,4.15,5.244l-1.8737,16.0806a1.7,1.7,0,0,0,1.4917,1.8852l2.5172.2933,4.3594-37.4132a7.0927,7.0927,0,0,1,7.866-6.2243h0a7.0928,7.0928,0,0,1,6.2243,7.8661l-3.2648,28.02,2.5326.2951a1.7,1.7,0,0,0,1.8851-1.4917l1.8809-16.142a4.7286,4.7286,0,0,1,5.244-4.15h0a4.7285,4.7285,0,0,1,4.1495,5.2441l-2.0775,17.83h0a9.4572,9.4572,0,0,1-10.4881,8.2991h0l-4.221-.4919L294.4934,202.29l-14.09-1.6418,1.46-12.5325-4.221-.4918h0a9.4571,9.4571,0,0,1-8.299-10.4881h0Z"/>
    <path class="b" d="M26.5986,216.2232c49.1921-34.739,88.9676-48.2925,141.2741-43.1224,80.1352,7.9208,72.7508,29.5874,154.5955,23.2482s143.0666,31.2036,117.5709,52.2177-178.9544,51.7469-275.5766,46.6111S-54.8368,273.7322,26.5986,216.2232Z"/>
    <g>
      <path class="a" d="M188.442,43.788l-3.1984-14.4216a11.9064,11.9064,0,0,0-.3335-1.179c.564-7.235.6315-18.5965-3.41-25.5817-5.0271-8.6894-17.5391,6.6-22.3589,13.087-.7041.0236-1.4133.0595-2.1307.1178L127.1,18.2406c-.7174.0583-1.4232.1374-2.1218.2277-5.8038-5.6239-20.62-18.6929-24.1783-9.3059-2.86,7.5459-.96,18.7474.7647,25.7965a11.93,11.93,0,0,0-.1389,1.2174l-.8285,14.7488C103.7132,89.2762,191.5579,82.1391,188.442,43.788Z"/>
      <g>
        <g>
          <path class="c" d="M125.7331,32.7781A9.5264,9.5264,0,0,1,126.494,51.8c-.2621.0213-.5234.0318-.7819.0318a9.5264,9.5264,0,0,1-.761-19.0215c.2621-.0214.5235-.0318.782-.0318m.0009-3.0469h-.0012c-.3413,0-.6873.0141-1.0284.0418a12.5733,12.5733,0,0,0,1.0077,25.1053c.3411,0,.6872-.0141,1.0286-.0418a12.5733,12.5733,0,0,0-1.0067-25.1053Z"/>
          <circle class="c" cx="128.2552" cy="40.2229" r="3.883"/>
        </g>
        <g>
          <path class="c" d="M162.2652,29.81a9.5265,9.5265,0,0,1,.761,19.0216c-.2621.0213-.5235.0318-.782.0318a9.5265,9.5265,0,0,1-.7609-19.0216c.2621-.0213.5235-.0317.7819-.0318m.001-3.0468h-.0012c-.3413,0-.6873.0141-1.0284.0418A12.5733,12.5733,0,0,0,162.2442,51.91c.3412,0,.6873-.014,1.0287-.0418a12.5728,12.5728,0,0,0,11.5135-13.55,12.6358,12.6358,0,0,0-12.52-11.5553Z"/>
          <circle class="c" cx="164.7873" cy="37.2548" r="3.883"/>
        </g>
      </g>
    </g>
    <g class="d">
      <g>
        <g>
          <ellipse cx="184.607" cy="262.0235" rx="3.2109" ry="7.9568" transform="translate(-134.2044 295.1196) rotate(-60.7603)"/>
          <ellipse cx="179.4751" cy="268.6788" rx="3.0777" ry="6.739" transform="translate(-139.1172 322.5174) rotate(-65.8492)"/>
        </g>
        <g>
          <ellipse cx="196.1501" cy="259.1985" rx="3.2109" ry="7.9568" transform="translate(-125.8347 303.7468) rotate(-60.7603)"/>
          <ellipse cx="211.4809" cy="260.846" rx="3.0777" ry="6.739" transform="translate(-113.059 347.0937) rotate(-65.8492)"/>
        </g>
      </g>
      <ellipse cx="204.1009" cy="271.7821" rx="11.7524" ry="5.2293" transform="translate(-0.7382 0.5559) rotate(-0.1558)"/>
    </g>
    <g>
      <g>
        <g>
          <ellipse class="e" cx="297.566" cy="308.1693" rx="7.8782" ry="4.7965" transform="translate(-114.1191 189.7245) rotate(-29.9519)"/>
          <ellipse class="e" cx="279.1441" cy="311.542" rx="7.1299" ry="4.3026" transform="translate(-84.1341 104.1563) rotate(-18.4185)"/>
        </g>
        <g>
          <ellipse class="e" cx="314.6257" cy="310.0501" rx="7.8782" ry="4.7965" transform="translate(-112.7797 198.4931) rotate(-29.9519)"/>
          <ellipse class="e" cx="326.446" cy="316.7569" rx="7.1299" ry="4.3026" transform="matrix(0.9488, -0.316, 0.316, 0.9488, -83.3586, 119.3688)"/>
        </g>
      </g>
      <ellipse class="e" cx="297.2136" cy="322.6711" rx="5.7958" ry="15.6833" transform="translate(-32.9132 611.581) rotate(-88.5425)"/>
    </g>
    <g>
      <g>
        <g>
          <ellipse class="e" cx="211.5734" cy="365.3787" rx="5.3665" ry="12.234" transform="translate(-210.6409 365.505) rotate(-59.9441)"/>
          <ellipse class="e" cx="199.1167" cy="373.9116" rx="4.9924" ry="10.6763" transform="translate(-223.2076 407.0697) rotate(-66.4529)"/>
        </g>
        <g>
          <ellipse class="e" cx="233.2119" cy="363.4138" rx="5.3665" ry="12.234" transform="translate(-198.1392 383.2532) rotate(-59.9441)"/>
          <ellipse class="e" cx="259.1146" cy="368.4635" rx="4.9924" ry="10.6763" transform="translate(-182.1847 458.8001) rotate(-66.4529)"/>
        </g>
      </g>
      <ellipse class="e" cx="240.4836" cy="382.671" rx="7.6123" ry="20.7466" transform="translate(-155.4957 600.5469) rotate(-86.6738)"/>
    </g>
    <g class="d">
      <g>
        <g>
          <ellipse cx="229.1157" cy="222.4554" rx="4.8683" ry="2.718" transform="translate(-82.7832 153.9027) rotate(-31.759)"/>
          <ellipse cx="218.1151" cy="224.6858" rx="4.342" ry="2.474" transform="translate(-67.9724 97.3599) rotate(-21.8583)"/>
        </g>
        <g>
          <ellipse cx="239.0466" cy="223.3761" rx="4.8683" ry="2.718" transform="translate(-81.7809 159.2678) rotate(-31.759)"/>
          <ellipse cx="245.6509" cy="227.2389" rx="4.342" ry="2.474" transform="translate(-66.9433 107.7954) rotate(-21.8583)"/>
        </g>
      </g>
      <ellipse cx="228.1661" cy="231.1139" rx="9.2034" ry="3.4584" transform="translate(-2.6555 2.6521) rotate(-0.6621)"/>
    </g>
  </g>
</svg>
