<?xml version="1.0" encoding="UTF-8" standalone="no"?>
<svg
   xmlns:dc="http://purl.org/dc/elements/1.1/"
   xmlns:cc="http://creativecommons.org/ns#"
   xmlns:rdf="http://www.w3.org/1999/02/22-rdf-syntax-ns#"
   xmlns:svg="http://www.w3.org/2000/svg"
   xmlns="http://www.w3.org/2000/svg"
   version="1.1"
   id="svg927"
   xml:space="preserve"
   width="1024"
   height="341.33334"
   viewBox="0 0 1024 341.33334"><metadata
     id="metadata933"><rdf:RDF><cc:Work
         rdf:about=""><dc:format>image/svg+xml</dc:format><dc:type
           rdf:resource="http://purl.org/dc/dcmitype/StillImage" /><dc:title></dc:title></cc:Work></rdf:RDF></metadata><defs
     id="defs931"><clipPath
       clipPathUnits="userSpaceOnUse"
       id="clipPath943"><path
         d="M 0,256 H 768 V 0 H 0 Z"
         id="path941" /></clipPath></defs><g
     id="g935"
     transform="matrix(1.3333333,0,0,-1.3333333,0,341.33333)"><g
       id="g937"><g
         id="g939"
         clip-path="url(#clipPath943)"><g
           id="g945"
           transform="translate(268.8047,123.3369)"><path
             d="m 0,0 c -16.04,8.084 -42.002,3.297 -42.002,3.297 -4.815,-7.43 -11.619,-13.173 -21.454,-16.299 0,0 14.648,-10.887 37.701,-9.093 9.711,0.756 10.727,-11.857 3.201,-21.265 -6.047,-7.558 -15.696,-7.376 -16.571,-7.421 -4.23,-4.365 -9.204,-6.692 -9.204,-6.692 0,0 2.581,5.66 -2.763,9.007 -5.745,1.718 -9.88,2.655 -24.813,9.877 -21.185,10.245 -30.484,9.36 -34.555,7.941 -3.326,-1.161 -3.938,-4.923 -0.197,-6.958 2.114,-1.15 21.535,-11.68 47.003,-19.304 9.056,-1.007 12.265,2.377 12.265,2.377 0,0 0.622,-2.257 -0.618,-5.243 5.781,-1.787 12.087,-1.485 12.882,-8.173 0.994,-8.349 -24.04,-15.239 -40.601,-6.627 -8.581,4.462 -24.073,12.042 -38.771,17.213 -48.015,16.89 -87.743,14.649 -87.743,14.649 0,0 19.512,-47.29 73.245,-47.29 h 113.066 c 21.703,0 46.566,17.151 46.566,48.761 0,6.766 -2.941,29.3 -26.637,41.243"
             style="fill:#000000;fill-opacity:1;fill-rule:nonzero;stroke:none"
             id="path947" /></g><g
           id="g949"
           transform="translate(87.8794,116.1953)"><path
             d="m 0,0 h 97.934 c 21.862,0 39.586,17.723 39.586,39.585 0,7.965 -2.355,15.38 -6.403,21.589 v 0.002 l -0.009,0.012 c -0.578,0.887 -1.199,1.742 -1.845,2.577 l -30.59,42.707 6.744,-31.419 v 0 l 0.136,-0.631 C 106.024,71.94 107.105,62.879 97.936,62.2 91.38,61.714 85.034,66.006 82.069,68.37 l -1.748,1.497 H 80.32 L 57.309,89.564 73.782,55.699 C 72.034,52.396 70.102,49.152 68.201,46.768 56.474,32.058 0,0 0,0"
             style="fill:#000000;fill-opacity:1;fill-rule:nonzero;stroke:none"
             id="path951" /></g><g
           id="g953"
           transform="translate(356.9404,63.6768)"><path
             d="M 0,0 V 58.818 H -11.091 V 0 c 0,-15.812 12.863,-28.675 28.674,-28.675 h 23.662 v 11.091 H 17.583 C 7.889,-17.584 0,-9.695 0,0"
             style="fill:#000000;fill-opacity:1;fill-rule:nonzero;stroke:none"
             id="path955" /></g><path
           d="m 694.344,34.478 h 11.092 v 92.761 h -11.092 z"
           style="fill:#000000;fill-opacity:1;fill-rule:nonzero;stroke:none"
           id="path957" /><g
           id="g959"
           transform="translate(639.8506,88.6289)"><path
             d="m 0,0 h -7.379 c -7.807,0 -14.159,6.353 -14.159,14.161 0,7.808 6.352,14.16 14.159,14.16 H 19.705 V 39.412 H -7.379 c -13.923,0 -25.251,-11.327 -25.251,-25.251 0,-13.924 11.328,-25.252 25.251,-25.252 H 0 c 7.807,0 14.159,-6.352 14.159,-14.16 v -3.125 c 0,-7.808 -6.352,-14.16 -14.159,-14.16 H -27.084 V -53.627 H 0 c 13.924,0 25.251,11.327 25.251,25.251 v 3.125 C 25.251,-11.327 13.924,0 0,0"
             style="fill:#000000;fill-opacity:1;fill-rule:nonzero;stroke:none"
             id="path961" /></g><g
           id="g963"
           transform="translate(566.8867,88.6289)"><path
             d="m 0,0 h -18.115 c -9.696,0 -17.584,7.889 -17.584,17.584 V 33.866 H -46.79 V 17.584 c 0,-15.812 12.863,-28.675 28.675,-28.675 H 0 v -13.862 c 0,-9.695 -7.888,-17.583 -17.583,-17.583 h -23.661 v -11.091 h 23.661 c 15.812,0 28.675,12.863 28.675,28.674 v 13.862 5.545 39.412 H 0 Z"
             style="fill:#000000;fill-opacity:1;fill-rule:nonzero;stroke:none"
             id="path965" /></g><g
           id="g967"
           transform="translate(462.1787,120.8262)"><path
             d="m 0,0 h -29.205 v -87.493 h 11.091 v 76.402 H 0 c 9.695,0 17.584,-7.888 17.584,-17.584 v -58.818 h 11.092 v 58.818 C 28.676,-12.863 15.813,0 0,0"
             style="fill:#000000;fill-opacity:1;fill-rule:nonzero;stroke:none"
             id="path969" /></g><path
           d="M 450.236,70.323 H 474.34 V 81.414 H 450.236 Z"
           style="fill:#000000;fill-opacity:1;fill-rule:nonzero;stroke:none"
           id="path971" /></g></g></g></svg>
