<?xml version="1.0" encoding="UTF-8" standalone="no"?>
<svg
   xmlns:dc="http://purl.org/dc/elements/1.1/"
   xmlns:cc="http://creativecommons.org/ns#"
   xmlns:rdf="http://www.w3.org/1999/02/22-rdf-syntax-ns#"
   xmlns:svg="http://www.w3.org/2000/svg"
   xmlns="http://www.w3.org/2000/svg"
   version="1.1"
   id="svg1534"
   xml:space="preserve"
   width="682.66669"
   height="682.66669"
   viewBox="0 0 682.66669 682.66669"><metadata
     id="metadata1540"><rdf:RDF><cc:Work
         rdf:about=""><dc:format>image/svg+xml</dc:format><dc:type
           rdf:resource="http://purl.org/dc/dcmitype/StillImage" /><dc:title></dc:title></cc:Work></rdf:RDF></metadata><defs
     id="defs1538"><clipPath
       clipPathUnits="userSpaceOnUse"
       id="clipPath1550"><path
         d="M 0,512 H 512 V 0 H 0 Z"
         id="path1548" /></clipPath></defs><g
     id="g1542"
     transform="matrix(1.3333333,0,0,-1.3333333,0,682.66667)"><g
       id="g1544"><g
         id="g1546"
         clip-path="url(#clipPath1550)"><g
           id="g1552"
           transform="translate(378.4026,305.2861)"><path
             d="m 0,0 c -21.737,10.955 -56.923,4.467 -56.923,4.467 -6.525,-10.069 -15.746,-17.852 -29.074,-22.088 0,0 19.851,-14.754 51.094,-12.323 13.159,1.024 14.537,-16.071 4.337,-28.82 -8.195,-10.243 -21.271,-9.997 -22.457,-10.057 -5.734,-5.916 -12.474,-9.069 -12.474,-9.069 0,0 3.497,7.669 -3.745,12.206 -7.785,2.329 -13.39,3.599 -33.627,13.386 -28.712,13.885 -41.314,12.685 -46.831,10.761 -4.507,-1.571 -5.337,-6.672 -0.267,-9.429 2.865,-1.558 29.186,-15.83 63.7,-26.162 12.274,-1.364 16.623,3.222 16.623,3.222 0,0 0.842,-3.059 -0.837,-7.106 7.834,-2.421 16.379,-2.012 17.458,-11.077 1.346,-11.313 -32.581,-20.65 -55.024,-8.98 -11.631,6.048 -32.626,16.32 -52.545,23.327 -65.072,22.891 -118.913,19.853 -118.913,19.853 0,0 26.444,-64.089 99.265,-64.089 h 153.232 c 29.412,0 63.108,23.245 63.108,66.083 0,9.17 -3.986,39.708 -36.1,55.895"
             style="fill:#000000;fill-opacity:1;fill-rule:nonzero;stroke:none"
             id="path1554" /></g><g
           id="g1556"
           transform="translate(133.2053,295.6064)"><path
             d="m 0,0 h 132.725 c 29.629,0 53.647,24.02 53.647,53.648 0,10.794 -3.19,20.843 -8.677,29.258 v 0.003 l -0.011,0.017 c -0.785,1.201 -1.626,2.359 -2.501,3.491 l -41.456,57.878 9.139,-42.58 v 0 l 0.184,-0.854 c 0.638,-3.364 2.103,-15.644 -10.323,-16.564 -8.815,-0.653 -17.37,5.077 -21.426,8.295 L 77.667,121.382 99.992,75.486 C 97.623,71.01 95.005,66.613 92.428,63.382 76.536,43.447 0,0 0,0"
             style="fill:#000000;fill-opacity:1;fill-rule:nonzero;stroke:none"
             id="path1558" /></g><g
           id="g1560"
           transform="translate(103.8977,99.4561)"><path
             d="M 0,0 V 53.031 H -10 V 0 c 0,-14.256 11.598,-25.854 25.854,-25.854 h 21.333 v 10 H 15.854 C 7.112,-15.854 0,-8.741 0,0"
             style="fill:#000000;fill-opacity:1;fill-rule:nonzero;stroke:none"
             id="path1562" /></g><path
           d="m 408.103,73.13 h 10 v 83.634 h -10 z"
           style="fill:#000000;fill-opacity:1;fill-rule:nonzero;stroke:none"
           id="path1564" /><g
           id="g1566"
           transform="translate(358.9709,121.9531)"><path
             d="m 0,0 h -6.652 c -7.039,0 -12.767,5.728 -12.767,12.768 0,7.039 5.728,12.766 12.767,12.766 h 24.419 v 10 H -6.652 c -12.554,0 -22.767,-10.213 -22.767,-22.766 C -29.419,0.214 -19.206,-10 -6.652,-10 H 0 c 7.039,0 12.767,-5.728 12.767,-12.767 v -2.817 C 12.767,-32.623 7.039,-38.351 0,-38.351 h -24.419 v -10 H 0 c 12.554,0 22.767,10.213 22.767,22.767 v 2.817 C 22.767,-10.213 12.554,0 0,0"
             style="fill:#000000;fill-opacity:1;fill-rule:nonzero;stroke:none"
             id="path1568" /></g><g
           id="g1570"
           transform="translate(293.1867,121.9531)"><path
             d="m 0,0 h -16.333 c -8.741,0 -15.854,7.112 -15.854,15.854 v 14.68 h -10 V 15.854 C -42.187,1.598 -30.589,-10 -16.333,-10 H 0 v -12.498 c 0,-8.741 -7.112,-15.853 -15.854,-15.853 h -21.333 v -10 h 21.333 C -1.598,-48.351 10,-36.753 10,-22.498 V -10 -5 30.534 H 0 Z"
             style="fill:#000000;fill-opacity:1;fill-rule:nonzero;stroke:none"
             id="path1572" /></g><g
           id="g1574"
           transform="translate(198.7815,150.9824)"><path
             d="m 0,0 h -26.332 v -78.885 h 10 V -10 H 0 c 8.741,0 15.854,-7.112 15.854,-15.854 v -53.031 h 10 v 53.031 C 25.854,-11.598 14.256,0 0,0"
             style="fill:#000000;fill-opacity:1;fill-rule:nonzero;stroke:none"
             id="path1576" /></g><path
           d="m 188.014,105.448 h 21.732 v 10 h -21.732 z"
           style="fill:#000000;fill-opacity:1;fill-rule:nonzero;stroke:none"
           id="path1578" /></g></g></g></svg>
