<?xml version="1.0" encoding="UTF-8" standalone="no"?>
<svg
   xmlns:dc="http://purl.org/dc/elements/1.1/"
   xmlns:cc="http://creativecommons.org/ns#"
   xmlns:rdf="http://www.w3.org/1999/02/22-rdf-syntax-ns#"
   xmlns:svg="http://www.w3.org/2000/svg"
   xmlns="http://www.w3.org/2000/svg"
   version="1.1"
   id="svg2141"
   xml:space="preserve"
   width="682.66669"
   height="682.66669"
   viewBox="0 0 682.66669 682.66669"><metadata
     id="metadata2147"><rdf:RDF><cc:Work
         rdf:about=""><dc:format>image/svg+xml</dc:format><dc:type
           rdf:resource="http://purl.org/dc/dcmitype/StillImage" /><dc:title></dc:title></cc:Work></rdf:RDF></metadata><defs
     id="defs2145"><clipPath
       clipPathUnits="userSpaceOnUse"
       id="clipPath2157"><path
         d="M 0,512 H 512 V 0 H 0 Z"
         id="path2155" /></clipPath></defs><g
     id="g2149"
     transform="matrix(1.3333333,0,0,-1.3333333,0,682.66667)"><g
       id="g2151"><g
         id="g2153"
         clip-path="url(#clipPath2157)"><g
           id="g2159"
           transform="translate(377.7024,249.6807)"><path
             d="m 0,0 c -21.736,10.956 -56.923,4.468 -56.923,4.468 -6.525,-10.069 -15.746,-17.852 -29.074,-22.089 0,0 19.851,-14.754 51.094,-12.323 13.159,1.024 14.537,-16.071 4.337,-28.82 -8.195,-10.243 -21.271,-9.996 -22.457,-10.057 -5.733,-5.916 -12.474,-9.069 -12.474,-9.069 0,0 3.497,7.67 -3.745,12.207 -7.785,2.329 -13.39,3.599 -33.627,13.385 -28.712,13.885 -41.314,12.685 -46.831,10.761 -4.507,-1.571 -5.337,-6.671 -0.267,-9.429 2.865,-1.558 29.186,-15.829 63.7,-26.162 12.274,-1.364 16.623,3.223 16.623,3.223 0,0 0.842,-3.059 -0.837,-7.107 7.834,-2.421 16.379,-2.012 17.458,-11.076 1.346,-11.314 -32.58,-20.651 -55.024,-8.981 -11.631,6.048 -32.626,16.32 -52.545,23.328 -65.072,22.891 -118.913,19.852 -118.913,19.852 0,0 26.444,-64.089 99.266,-64.089 h 153.231 c 29.413,0 63.108,23.246 63.108,66.083 0,9.17 -3.986,39.708 -36.1,55.895"
             style="fill:#000000;fill-opacity:1;fill-rule:nonzero;stroke:none"
             id="path2161" /></g><g
           id="g2163"
           transform="translate(132.5051,240.002)"><path
             d="m 0,0 h 132.725 c 29.629,0 53.647,24.019 53.647,53.647 0,10.795 -3.19,20.843 -8.677,29.258 v 0.003 l -0.011,0.017 c -0.785,1.201 -1.626,2.36 -2.501,3.492 l -41.456,57.878 9.139,-42.58 v -0.001 l 0.184,-0.854 c 0.638,-3.364 2.103,-15.643 -10.323,-16.564 -8.815,-0.652 -17.37,5.077 -21.426,8.296 L 77.667,121.381 99.992,75.485 C 97.623,71.01 95.005,66.612 92.429,63.381 76.536,43.446 0,0 0,0"
             style="fill:#000000;fill-opacity:1;fill-rule:nonzero;stroke:none"
             id="path2165" /></g></g></g></g></svg>
